<?xml version="1.0" encoding="UTF-8"?>
<svg version="1.1" xmlns="http://www.w3.org/2000/svg" width="286" height="328">
<path d="M0 0 C94.38 0 188.76 0 286 0 C286 108.24 286 216.48 286 328 C191.62 328 97.24 328 0 328 C0 219.76 0 111.52 0 0 Z " fill="#FEFEFE" transform="translate(0,0)"/>
<path d="M0 0 C8.63380411 -0.06849716 17.26738763 -0.12322365 25.90139294 -0.15543652 C29.91296381 -0.17091757 33.92433501 -0.19182257 37.93579102 -0.22631836 C99.50134811 -0.74137825 99.50134811 -0.74137825 119.8125 18.375 C129.46292522 28.7873009 133.32105381 39.52757787 133.4375 53.625 C133.44765137 54.49543945 133.45780273 55.36587891 133.46826172 56.26269531 C133.35950623 64.38412662 131.35422385 71.84040672 127.75 79.125 C127.39421875 79.87007813 127.0384375 80.61515625 126.671875 81.3828125 C124.18794419 85.27120886 121.09749963 88.59148526 118 92 C119.10174561 92.01981934 120.20349121 92.03963867 121.33862305 92.06005859 C195.9079577 93.4478806 195.9079577 93.4478806 216.51171875 114.28125 C229.263986 128.21465346 231.99266205 144.09588085 231.22216797 162.37353516 C229.99428529 176.88953722 221.30896124 190.12135838 211 200 C196.85700596 211.86958552 181.44689008 214.32015632 163.58984375 214.1953125 C162.01087118 214.19157592 160.43189627 214.188732 158.85292053 214.18673706 C154.72491905 214.1791513 150.59706141 214.15954711 146.46911621 214.1373291 C142.24570663 214.11676088 138.0222735 214.10771201 133.79882812 214.09765625 C125.53247917 214.07629572 117.26627413 214.04115567 109 214 C109 209.05 109 204.1 109 199 C111.28260742 198.99383667 111.28260742 198.99383667 113.61132812 198.98754883 C119.32959543 198.96555681 125.04719409 198.91106198 130.76513672 198.84741211 C133.22633389 198.82440576 135.68762709 198.80987778 138.14892578 198.80444336 C162.70705702 199.19829941 162.70705702 199.19829941 184.33203125 188.78515625 C195.01555438 177.3510343 198.53150306 164.9669911 198.2734375 149.6953125 C197.84072231 139.09164819 194.30872863 130.64938971 187 123 C186.18015625 122.13761719 186.18015625 122.13761719 185.34375 121.2578125 C174.94041219 111.39427052 159.69888811 110.74137709 146.109375 110.5859375 C145.03874817 110.56657135 143.96812134 110.5472052 142.86505127 110.5272522 C139.49344491 110.46815583 136.12180309 110.42135445 132.75 110.375 C130.4439967 110.33675567 128.1380067 110.29770035 125.83203125 110.2578125 C120.22146402 110.16251307 114.61083015 110.07822853 109 110 C109 104.39 109 98.78 109 93 C108.01 93 107.02 93 106 93 C106 132.93 106 172.86 106 214 C97.42 214 88.84 214 80 214 C80 180.01 80 146.02 80 111 C65.81 111 51.62 111 37 111 C24 97 24 97 24 96 C25.48040771 95.970271 25.48040771 95.970271 26.99072266 95.93994141 C30.72222522 95.86272367 34.45339521 95.7742074 38.18457031 95.68261719 C39.78639059 95.6447991 41.38828229 95.60987302 42.99023438 95.578125 C69.00471598 95.3966543 69.00471598 95.3966543 91 83 C99.32419744 72.25970897 101.07760875 60.30034909 100 47 C98.31137815 38.0332871 93.35618003 30.33026866 86.375 24.5390625 C78.06428379 19.15349969 67.93441073 17.92698026 58.23852539 17.79467773 C56.93770523 17.77473251 55.63688507 17.75478729 54.29664612 17.73423767 C52.896984 17.71725972 51.49732067 17.70038069 50.09765625 17.68359375 C48.65033923 17.6629938 47.20302781 17.64199659 45.75572205 17.62062073 C41.96646698 17.56571374 38.17716048 17.5161676 34.38781738 17.46777344 C30.51305625 17.4173277 26.63836881 17.36176269 22.76367188 17.30664062 C15.17584221 17.19944343 7.58794993 17.09838868 0 17 C0 11.39 0 5.78 0 0 Z " fill="#ED191A" transform="translate(45,11)"/>
<path d="M0 0 C6.59382067 -0.05024894 13.18752468 -0.0861115 19.78149414 -0.10986328 C22.01458686 -0.11978743 24.24766707 -0.13333106 26.48071289 -0.15087891 C84.80836331 -0.59702966 84.80836331 -0.59702966 106.10961914 19.86352539 C118.3984608 32.28931392 122.32442435 46.7195744 122.38500977 63.75146484 C122.12761189 79.8826593 115.02994355 93.24564609 104.15234375 104.9375 C90.03189094 118.46853282 73.38391245 121.32670732 54.58984375 121.1953125 C53.01087118 121.19157592 51.43189627 121.188732 49.85292053 121.18673706 C45.72491905 121.1791513 41.59706141 121.15954711 37.46911621 121.1373291 C33.24570663 121.11676088 29.0222735 121.10771201 24.79882812 121.09765625 C16.53247917 121.07629572 8.26627413 121.04115567 0 121 C0 116.05 0 111.1 0 106 C1.52173828 105.99589111 3.04347656 105.99178223 4.61132812 105.98754883 C10.32959543 105.96555681 16.04719409 105.91106198 21.76513672 105.84741211 C24.22633389 105.82440576 26.68762709 105.80987778 29.14892578 105.80444336 C53.70705702 106.19829941 53.70705702 106.19829941 75.33203125 95.78515625 C86.01555438 84.3510343 89.53150306 71.9669911 89.2734375 56.6953125 C88.84072231 46.09164819 85.30872863 37.64938971 78 30 C77.4534375 29.42507812 76.906875 28.85015625 76.34375 28.2578125 C65.94041219 18.39427052 50.69888811 17.74137709 37.109375 17.5859375 C35.50343475 17.55688828 35.50343475 17.55688828 33.86505127 17.5272522 C30.49344491 17.46815583 27.12180309 17.42135445 23.75 17.375 C21.4439967 17.33675567 19.1380067 17.29770035 16.83203125 17.2578125 C11.22146402 17.16251307 5.61083015 17.07822853 0 17 C0 11.39 0 5.78 0 0 Z " fill="#012161" transform="translate(154,104)"/>
<path d="M0 0 C7.51284131 6.27092264 10.60075349 13.11476048 13.625 22.1875 C13.625 27.4675 13.625 32.7475 13.625 38.1875 C-2.215 38.1875 -18.055 38.1875 -34.375 38.1875 C-31.86641927 47.91925541 -31.86641927 47.91925541 -25.625 54.5 C-21.25980059 55.83381093 -17.02422664 55.52484181 -12.625 54.625 C-9.25031092 52.46894864 -8.15439998 49.74629996 -6.375 46.1875 C-3.95799013 46.32879287 -1.54149571 46.47536487 0.875 46.625 C1.55691406 46.66431641 2.23882812 46.70363281 2.94140625 46.74414062 C6.26948041 46.95416472 9.42755402 47.20684002 12.625 48.1875 C10.94868629 56.23380582 6.96018345 61.79931278 0.25 66.5625 C-9.25954455 72.37564351 -20.41333794 72.55878577 -31.125 70.125 C-39.16130754 67.61804692 -45.0340979 62.66939057 -49.3046875 55.47265625 C-52.70556207 48.21166493 -53.83137247 42.73204474 -53.6875 34.75 C-53.69072266 33.85990234 -53.69394531 32.96980469 -53.69726562 32.05273438 C-53.60766089 20.90101781 -51.42431225 11.21088809 -43.625 2.9375 C-32.01700645 -8.06523504 -13.16928392 -9.41369076 0 0 Z " fill="#03B052" transform="translate(110.375,34.8125)"/>
<path d="M0 0 C8.91 0 17.82 0 27 0 C27 38.61 27 77.22 27 117 C18.09 117 9.18 117 0 117 C0 78.39 0 39.78 0 0 Z " fill="#880015" transform="translate(15,107)"/>
<path d="M0 0 C8.58 0 17.16 0 26 0 C26 39.93 26 79.86 26 121 C17.42 121 8.84 121 0 121 C0 81.07 0 41.14 0 0 Z " fill="#880015" transform="translate(125,104)"/>
<path d="M0 0 C3.18653222 -0.20521899 6.37135052 -0.32822933 9.5625 -0.4375 C10.45775391 -0.49615234 11.35300781 -0.55480469 12.27539062 -0.61523438 C16.02124541 -0.71128193 18.8523762 -0.76733467 22.03198242 1.35864258 C23.85599761 3.14447667 25.43546479 4.98420023 27 7 C27.45366943 7.54873779 27.90733887 8.09747559 28.37475586 8.6628418 C29.68187176 10.27101139 30.93767567 11.90951427 32.1875 13.5625 C36.05371569 18.58201142 40.03849478 23.4615753 44.1875 28.25 C48.25783148 32.95081858 52.22685253 37.70536073 56.08203125 42.5859375 C58.14907177 45.18763005 60.25940984 47.75016218 62.375 50.3125 C63.0760083 51.19615234 63.7770166 52.07980469 64.49926758 52.99023438 C66.92404248 56.01327247 66.92404248 56.01327247 69.6171875 58.56201172 C77.74878258 67.22596085 78.16037335 74.89369124 77.87890625 86.49414062 C77.79538679 88.60030497 77.71073776 90.7064248 77.625 92.8125 C77.57474768 94.96929709 77.52913653 97.12620757 77.48828125 99.28320312 C77.37901335 104.5246431 77.21248717 109.76178166 77 115 C73.60988309 111.65915702 70.62561149 108.34229863 67.8125 104.5 C66.64460938 102.92025391 66.64460938 102.92025391 65.453125 101.30859375 C65.05029297 100.76315918 64.64746094 100.21772461 64.23242188 99.65576172 C62.20669604 96.93419424 60.13555392 94.24809326 58.0625 91.5625 C57.64653564 91.02302734 57.23057129 90.48355469 56.80200195 89.92773438 C55.95692883 88.83202191 55.1116323 87.73648171 54.26611328 86.64111328 C52.17432793 83.92977871 50.08739443 81.21471548 48 78.5 C47.16669027 77.41664851 46.33335693 76.33331518 45.5 75.25 C40.5 68.75 35.5 62.25 30.5 55.75 C30.0877417 55.21407227 29.6754834 54.67814453 29.25073242 54.12597656 C28.41492624 53.03941221 27.57915165 51.95282355 26.7434082 50.86621094 C24.69816364 48.20711452 22.65230009 45.5485006 20.60546875 42.890625 C19.39218291 41.31472546 18.1789718 39.73866998 16.98291016 38.1496582 C14.58771593 34.982533 12.10091436 31.94925973 9.48046875 28.96484375 C2.73437256 21.07412602 -1.41963491 15.49375144 -0.66259766 4.82495117 C-0.49000519 3.21074012 -0.25252644 1.6036508 0 0 Z " fill="#890116" transform="translate(45,107)"/>
<path d="M0 0 C8.91 0 17.82 0 27 0 C27 30.69 27 61.38 27 93 C18.09 93 9.18 93 0 93 C0 62.31 0 31.62 0 0 Z " fill="#ED1818" transform="translate(15,11)"/>
<path d="M0 0 C8.58 0 17.16 0 26 0 C26 29.37 26 58.74 26 89 C17.42 89 8.84 89 0 89 C0 59.63 0 30.26 0 0 Z " fill="#002060" transform="translate(125,228)"/>
<path d="M0 0 C4.81899576 2.36403566 7.56479358 5.22324894 10 10 C10 12.31 10 14.62 10 17 C0.76 17 -8.48 17 -18 17 C-18 9.12762088 -17.44817729 7.62304709 -12.375 2.1875 C-8.53883721 -0.82799115 -4.6795709 -0.89894809 0 0 Z " fill="#FAFDFB" transform="translate(95,44)"/>
</svg>
